<?xml version="1.0" encoding="UTF-8" standalone="no"?>
<svg width="161px" height="164px" viewBox="0 0 161 164" version="1.1" xmlns="http://www.w3.org/2000/svg" xmlns:xlink="http://www.w3.org/1999/xlink">
    <!-- Generator: Sketch 43.1 (39012) - http://www.bohemiancoding.com/sketch -->
    <title>Group</title>
    <desc>Created with Sketch.</desc>
    <defs></defs>
    <g id="Page-1" stroke="none" stroke-width="1" fill="none" fill-rule="evenodd">
        <g id="Group" fill-rule="nonzero" fill="#FFFFFF">
            <path d="M38,93.1 L38,98.2 L38.5,98.5 C41.7,100.7 47.1,102 52.7,102 C55.1,102 57.4,101.8 59.6,101.3 L59.6,105.9 L60.1,106.2 C64.9,109.4 72.7,111.4 81,111.4 C89.3,111.4 97.1,109.5 101.9,106.2 L102.4,105.9 L102.4,101.3 C104.5,101.7 106.9,102 109.3,102 C115,102 120.3,100.7 123.5,98.5 L124,98.2 L124,93.1 C124,86.7 119.8,81.2 114,79.2 C116.9,77.6 118.8,74.5 118.8,70.9 C118.8,65.7 114.5,61.4 109.3,61.4 C104.1,61.4 99.8,65.7 99.8,70.9 C99.8,74.4 101.7,77.5 104.6,79.2 C101.6,80.2 99,82.2 97.2,84.8 C94.5,81.6 90.8,79.3 86.7,78.1 C91.4,75.9 94.7,71.2 94.7,65.7 C94.7,58.2 88.6,52 81,52 C73.4,52 67.3,58.1 67.3,65.7 C67.3,71.2 70.6,76 75.3,78.1 C71.1,79.2 67.5,81.6 64.8,84.8 C63,82.2 60.4,80.3 57.4,79.2 C60.3,77.6 62.2,74.5 62.2,70.9 C62.2,65.7 57.9,61.4 52.7,61.4 C47.5,61.4 43.2,65.7 43.2,70.9 C43.2,74.4 45.1,77.5 48,79.2 C42.2,81.1 38,86.6 38,93.1 Z M60.1,70.9 C60.1,75 56.8,78.3 52.7,78.3 C48.6,78.3 45.3,75 45.3,70.9 C45.3,66.8 48.6,63.5 52.7,63.5 C56.8,63.5 60.1,66.8 60.1,70.9 Z M63.4,86.5 C61,89.9 59.6,94.1 59.6,98.6 L59.6,99.1 C57.5,99.6 55.1,99.8 52.7,99.8 C47.7,99.8 43.1,98.7 40.1,96.9 L40.1,93 C40.1,86.1 45.7,80.4 52.7,80.4 C57.2,80.5 61.1,82.9 63.4,86.5 Z M92.4,65.6 C92.4,72 87.2,77.1 80.9,77.1 C74.6,77.1 69.4,71.9 69.4,65.6 C69.4,59.2 74.6,54.1 80.9,54.1 C87.2,54.1 92.4,59.3 92.4,65.6 Z M100.1,98.6 L100.1,104.7 C95.6,107.5 88.5,109.2 80.9,109.2 C73.3,109.2 66.1,107.5 61.7,104.7 L61.7,98.6 C61.7,88 70.3,79.4 80.9,79.4 C91.5,79.4 100.1,88 100.1,98.6 Z M116.5,70.9 C116.5,75 113.2,78.3 109.1,78.3 C105,78.3 101.7,75 101.7,70.9 C101.7,66.8 105,63.5 109.1,63.5 C113.2,63.5 116.5,66.8 116.5,70.9 Z M121.7,93.1 L121.7,97 C118.8,98.8 114.1,99.9 109.1,99.9 C106.7,99.9 104.3,99.6 102.2,99.2 L102.2,98.7 C102.2,94.2 100.8,90 98.4,86.6 C100.6,83 104.6,80.6 109.1,80.6 C116.1,80.5 121.7,86.1 121.7,93.1 Z" id="Shape"></path>
        </g>
    </g>
</svg>