<?xml version="1.0" encoding="UTF-8" standalone="no"?>
<svg width="161px" height="164px" viewBox="0 0 161 164" version="1.1" xmlns="http://www.w3.org/2000/svg" xmlns:xlink="http://www.w3.org/1999/xlink">
    <!-- Generator: Sketch 43.1 (39012) - http://www.bohemiancoding.com/sketch -->
    <title>Chatbot</title>
    <desc>Created with Sketch.</desc>
    <defs></defs>
    <g id="Page-1" stroke="none" stroke-width="1" fill="none" fill-rule="evenodd">
        <g id="Chatbot" fill-rule="nonzero" fill="#FFFFFF">
            <g id="Group" transform="translate(36.000000, 29.000000)">
                <path d="M23.172,82.262 C29.627,82.262 34.879,87.514 34.88,93.97 L31.88,93.97 C31.879,89.168 27.973,85.262 23.172,85.262 L15.574,85.262 C10.772,85.262 6.866,89.168 6.866,93.97 L3.866,93.97 C3.866,87.514 9.118,82.262 15.574,82.262 L23.172,82.262 Z M12.289,68.234 L15.289,68.234 L15.289,75.315 L12.289,75.315 L12.289,68.234 Z M23.301,68.234 L26.301,68.234 L26.301,75.315 L23.301,75.315 L23.301,68.234 Z M0.004,71.376 L3.004,71.376 L3.004,78.173 L0.004,78.173 L0.004,71.376 Z M35.741,68.376 L38.741,68.376 L38.741,75.173 L35.741,75.173 L35.741,68.376 Z" id="Combined-Shape"></path>
                <path d="M29.26,62.587 L8.869,62.587 C6.388,62.587 4.369,64.606 4.369,67.087 L4.369,76.462 C4.369,78.943 6.388,80.962 8.869,80.962 L29.26,80.962 C31.741,80.962 33.76,78.943 33.76,76.462 L33.76,67.087 C33.76,64.605 31.741,62.587 29.26,62.587 Z M30.76,76.462 C30.76,77.289 30.087,77.962 29.26,77.962 L8.869,77.962 C8.042,77.962 7.369,77.289 7.369,76.462 L7.369,67.087 C7.369,66.26 8.042,65.587 8.869,65.587 L29.26,65.587 C30.087,65.587 30.76,66.26 30.76,67.087 L30.76,76.462 Z" id="Shape"></path>
                <path d="M48.803,11.358 C49.829,11.058 50.879,10.815 51.949,10.631 C47.871,4.263 40.739,0.03 32.632,0.03 C19.988,0.03 9.702,10.316 9.702,22.96 C9.702,23.524 9.773,44.395 9.773,44.395 L9.784,47.549 L18.124,40.715 C21.363,43.366 25.243,45.046 29.357,45.637 C29.09,44.612 28.883,43.564 28.732,42.498 C25.183,41.792 21.875,40.135 19.165,37.649 L18.207,36.77 L12.763,41.231 C12.743,35.377 12.702,23.386 12.702,22.96 C12.702,11.971 21.642,3.03 32.632,3.03 C39.291,3.03 45.182,6.325 48.803,11.358 Z" id="Shape"></path>
                <path d="M77.676,19.513 C73.252,16.537 67.93,14.798 62.208,14.798 C62.141,14.798 62.075,14.803 62.009,14.803 C46.779,14.911 34.421,27.33 34.421,42.585 C34.421,45.272 34.812,47.869 35.527,50.328 C37.109,55.77 40.307,60.53 44.574,64.043 C49.375,67.995 55.519,70.372 62.208,70.372 C68.46,70.372 74.457,68.264 79.336,64.433 C79.556,64.26 79.787,64.104 80.003,63.924 L84.921,67.954 L89.897,72.031 L89.908,68.877 C89.908,68.877 89.996,43.277 89.996,42.585 C89.996,32.984 85.101,24.506 77.676,19.513 Z M86.919,65.713 L79.917,59.975 L78.958,60.854 C74.375,65.057 68.427,67.373 62.209,67.373 C48.542,67.373 37.422,56.254 37.422,42.586 C37.422,28.918 48.542,17.799 62.209,17.799 C75.877,17.799 86.997,28.918 86.997,42.586 C86.996,43.126 86.942,58.849 86.919,65.713 Z" id="Shape"></path>
                <path d="M74.948,46.052 C73.140372,46.052 71.675,44.586628 71.675,42.779 C71.675,40.971372 73.140372,39.506 74.948,39.506 C76.755628,39.506 78.221,40.971372 78.221,42.779 C78.221,44.586628 76.755628,46.052 74.948,46.052 Z M62.209,46.052 C60.401372,46.052 58.936,44.586628 58.936,42.779 C58.936,40.971372 60.401372,39.506 62.209,39.506 C64.016628,39.506 65.482,40.971372 65.482,42.779 C65.482,44.586628 64.016628,46.052 62.209,46.052 Z M49.469,46.052 C47.661372,46.052 46.196,44.586628 46.196,42.779 C46.196,40.971372 47.661372,39.506 49.469,39.506 C51.276628,39.506 52.742,40.971372 52.742,42.779 C52.742,44.586628 51.276628,46.052 49.469,46.052 Z" id="Combined-Shape"></path>
            </g>
        </g>
    </g>
</svg>