<?xml version="1.0" encoding="UTF-8" standalone="no"?>
<svg width="161px" height="164px" viewBox="0 0 161 164" version="1.1" xmlns="http://www.w3.org/2000/svg" xmlns:xlink="http://www.w3.org/1999/xlink">
    <!-- Generator: Sketch 43.1 (39012) - http://www.bohemiancoding.com/sketch -->
    <title>Nudges</title>
    <desc>Created with Sketch.</desc>
    <defs></defs>
    <g id="Page-1" stroke="none" stroke-width="1" fill="none" fill-rule="evenodd">
        <g id="Nudges" fill-rule="nonzero" fill="#FFFFFF">
            <g id="Group" transform="translate(48.000000, 39.000000)">
                <path d="M5,0.36216 C2.24731,0.36216 0,2.60947 0,5.36216 L0,81.36216 C0,84.11486 2.247307,86.36216 5,86.36216 L51,86.36216 C53.752693,86.36216 56,84.11486 56,81.36216 C56.0051003,81.0015241 56,71.6665039 56,71.6665039 L54,71.6665039 C54,71.6665039 53.9948997,81.0015241 54,81.36216 C54,83.04146 52.679281,84.36216 51,84.36216 L5,84.36216 C3.320719,84.36216 2,83.04146 2,81.36216 L2,5.36216 C2,3.68287 3.320716,2.36216 5,2.36216 L51,2.36216 C52.679284,2.36216 54,3.68287 54,5.36216 L54,22.11216 C52.42269,21.713795 50.741008,21.461279 49,21.39341 L49,8.36216 C48.9999448,7.80989812 48.5522619,7.36221522 48,7.36216 L8,7.36216 C7.33441802,7.45338154 6.9914236,7.87552852 7,8.36216 L7,63.36216 C7.00005522,63.9144219 7.44773812,64.3621048 8,64.36216 L48,64.36216 C48.5522619,64.3621048 48.9999448,63.9144219 49,63.36216 L49,47.33091 C50.742249,47.261541 52.421707,47.016574 54,46.61216 L54,73.36216 C53.9948997,73.7227959 54.1843753,74.0582414 54.4958728,74.2400477 C54.8073704,74.4218541 55.1926296,74.4218541 55.5041272,74.2400477 C55.8156247,74.0582414 56.0051003,73.7227959 56,73.36216 L56,46.01841 C57.695389,45.407884 59.244228,44.596027 60.59375,43.64341 C63.865924,41.33371 66,38.05868 66,34.36216 C66,30.66564 63.865924,27.35943 60.59375,25.04966 C59.244228,24.097056 57.695389,23.341431 56,22.73716 L56,5.36216 C56,2.60947 53.75269,0.36216 51,0.36216 L5,0.36216 Z M9,9.36216 L47,9.36216 L47,21.39341 C42.512496,21.568345 38.452782,22.899167 35.40625,25.04966 C32.134076,27.35943 30,30.66564 30,34.36216 C30,37.79596 31.861946,40.86686 34.75,43.14341 L33.03125,50.11216 C32.946726,50.4748078 33.0706784,50.8543862 33.3529372,51.09726 C33.635196,51.3401339 34.0290168,51.4060813 34.375,51.26841 L44.5625,47.08091 C45.353747,47.191989 46.170083,47.285199 47,47.33091 L47,62.36216 L9,62.36216 L9,9.36216 Z M48,23.36216 C52.503677,23.36216 56.556884,24.64128 59.4375,26.67466 C62.318116,28.70804 64,31.43126 64,34.36216 C64,37.29306 62.318116,39.98507 59.4375,42.01841 C56.556884,44.05181 52.503675,45.36216 48,45.36216 C46.827155,45.36216 45.675659,45.24961 44.5625,45.08091 C44.3830266,45.053121 44.1993738,45.0747272 44.03125,45.14341 L35.4375,48.67466 L36.84375,43.01841 C36.9353274,42.6306509 36.7880086,42.2255241 36.46875,41.98716 C33.643458,39.96207 32,37.26615 32,34.36216 C32,31.43126 33.681884,28.70804 36.5625,26.67466 C39.443116,24.64128 43.496323,23.36216 48,23.36216 Z M28,69.36216 C25.250421,69.36216 23,71.61256 23,74.36216 C23,77.11176 25.250421,79.36216 28,79.36216 C30.749579,79.36216 33,77.11176 33,74.36216 C33,71.61256 30.749579,69.36216 28,69.36216 Z M28,71.36216 C29.6687,71.36216 31.03125,72.69336 31.03125,74.36216 C31.03125,76.03086 29.6687,77.36216 28,77.36216 C26.331301,77.36216 25,76.03086 25,74.36216 C25,72.69336 26.331301,71.36216 28,71.36216 Z" id="Shape"></path>
            </g>
        </g>
    </g>
</svg>