<?xml version="1.0" encoding="UTF-8" standalone="no"?>
<svg width="161px" height="164px" viewBox="0 0 161 164" version="1.1" xmlns="http://www.w3.org/2000/svg" xmlns:xlink="http://www.w3.org/1999/xlink">
    <!-- Generator: Sketch 43.1 (39012) - http://www.bohemiancoding.com/sketch -->
    <title>VideoConference</title>
    <desc>Created with Sketch.</desc>
    <defs></defs>
    <g id="Page-1" stroke="none" stroke-width="1" fill="none" fill-rule="evenodd">
        <g id="VideoConference">
            <path d="M88.1,65 C88.1,60.8 84.7,57.3 80.4,57.3 C76.1,57.3 72.8,60.7 72.8,65 C72.8,69.3 76.2,72.7 80.4,72.7 C84.7,72.7 88.1,69.3 88.1,65 Z" id="Shape"></path>
            <polygon id="Shape" points="92.3 104.3 68.9 104.3 68.7 104.8 67.5 107.8 93.7 107.8 92.4 104.7"></polygon>
            <path d="M66.8,90.4 L94,90.4 C92,81.4 85.4,76.1 80.4,76.1 C75.4,76.1 68.9,81.4 66.8,90.4 Z" id="Shape"></path>
            <path d="M67.4,80.8 C68.8,78.6 70.5,76.9 72.3,75.5 C72.6,75.1 72.8,74.8 72.8,74.3 C72.9,73.7 72.7,73.1 72.3,72.6 C70.6,70.7 69.4,68.1 69.4,65.2 C69.4,59.1 74.3,54.2 80.4,54.2 L80.5,54.2 L80.6,54.2 C86.7,54.2 91.6,59.2 91.6,65.2 C91.6,68.1 90.4,70.7 88.7,72.6 C88.3,73.1 88.2,73.7 88.2,74.3 C88.2,74.8 88.4,75.1 88.7,75.5 C90.5,76.8 92.2,78.6 93.6,80.8 C95.4,83.6 96.8,87 97.5,90.4 L114,90.4 L114,50.5 L48.5,50.5 L48.5,90.4 L63.5,90.4 C64.2,87 65.5,83.6 67.4,80.8 Z" id="Shape"></path>
            <path d="M98.1,94 L94.5,94 L66.3,94 L62.9,94 L47.9,94 L39.8,113.5 L94.5,113.5 L122.8,113.5 L114.7,94 L98.1,94 Z M96.8,108.3 C96.8,109.5 95.7,110.5 94.5,110.5 L66.8,110.5 C65.5,110.5 64.5,109.5 64.5,108.3 L64.5,108 L64.4,108 L66.3,103.3 L66.3,103.3 C66.5,102.3 67.4,101.5 68.6,101.5 L70,101.5 L90.9,101.5 L92.6,101.5 C93.8,101.5 94.7,102.3 94.9,103.2 C94.9,103.2 94.9,103.2 94.9,103.3 L96.8,108 L96.8,108.3 L96.8,108.3 Z" id="Shape"></path>
            <path d="M117.8,91.8 L117.8,91.4 L117.8,54.4 L117.8,49.6 C117.8,48.2 116.5,47.1 114.9,47.1 L47.7,47.1 C46.2,47.1 44.9,48.2 44.9,49.6 L44.9,57.1 L44.9,91.4 L44.9,91.8 L35.7,114 L35.7,114.3 C35.7,115.7 36.9,116.9 38.4,116.9 L124.3,116.9 C125.8,116.9 127,115.7 127,114.3 L127,114 L117.8,91.8 Z M48.5,50.5 L114.1,50.5 L114.1,90.4 L97.6,90.4 C96.8,87 95.5,83.6 93.7,80.8 C92.3,78.6 90.6,76.9 88.8,75.5 C88.5,75.1 88.3,74.8 88.3,74.3 C88.2,73.7 88.4,73.1 88.8,72.6 C90.5,70.7 91.7,68.1 91.7,65.2 C91.7,59.2 86.8,54.2 80.7,54.2 L80.6,54.2 L80.5,54.2 C74.4,54.2 69.5,59.1 69.5,65.2 C69.5,68.1 70.7,70.7 72.4,72.6 C72.8,73.1 73,73.7 72.9,74.3 C72.9,74.8 72.7,75.1 72.4,75.5 C70.6,76.8 68.9,78.6 67.5,80.8 C65.7,83.7 64.3,87 63.5,90.4 L48.5,90.4 L48.5,50.5 L48.5,50.5 Z M80.4,76.1 C85.4,76.1 92,81.4 94,90.4 L66.8,90.4 C68.9,81.4 75.4,76.1 80.4,76.1 Z M72.8,65 C72.8,60.8 76.1,57.3 80.4,57.3 C84.7,57.3 88.1,60.7 88.1,65 C88.1,69.3 84.7,72.7 80.4,72.7 C76.2,72.7 72.8,69.3 72.8,65 Z M94.5,113.5 L39.8,113.5 L47.9,94 L62.9,94 L66.3,94 L94.6,94 L98.2,94 L114.7,94 L122.8,113.5 L94.5,113.5 Z" id="Shape" fill="#FFFFFF" fill-rule="nonzero"></path>
            <path d="M94.8,103.2 C94.6,102.2 93.7,101.5 92.5,101.5 L90.8,101.5 L70,101.5 L68.6,101.5 C67.4,101.5 66.5,102.3 66.3,103.3 L66.3,103.3 L64.4,108 L64.5,108 L64.5,108.3 C64.5,109.5 65.5,110.5 66.8,110.5 L94.5,110.5 C95.7,110.5 96.8,109.5 96.8,108.3 L96.8,108 L94.8,103.2 C94.9,103.3 94.8,103.2 94.8,103.2 Z M67.5,107.8 L68.7,104.8 L68.9,104.3 L92.3,104.3 L92.4,104.7 L93.6,107.8 L67.5,107.8 Z" id="Shape" fill="#FFFFFF" fill-rule="nonzero"></path>
        </g>
    </g>
</svg>