<?xml version="1.0" encoding="UTF-8" standalone="no"?>
<svg width="161px" height="164px" viewBox="0 0 161 164" version="1.1" xmlns="http://www.w3.org/2000/svg" xmlns:xlink="http://www.w3.org/1999/xlink">
    <!-- Generator: Sketch 43.1 (39012) - http://www.bohemiancoding.com/sketch -->
    <title>RealWorld</title>
    <desc>Created with Sketch.</desc>
    <defs></defs>
    <g id="Page-1" stroke="none" stroke-width="1" fill="none" fill-rule="evenodd">
        <g id="RealWorld">
            <g id="Group" transform="translate(48.000000, 49.000000)">
                <path d="M52.4847,56.0156 C51.9454,56.052 51.3829,56.0892 50.8831,56.3589 C49.7928,57.0217 48.7239,57.759 47.5892,58.3136 C47.2245,58.4915 46.8772,58.7229 46.498,58.8511 C46.1034,58.985 45.6885,59.0156 45.2833,59.0959 C44.2423,59.3006 43.4811,59.4278 42.3966,59.6831 C41.2552,59.9528 40.6734,60.0915 39.6835,60.4644 C39.37,60.5821 39.068,60.7399 38.7496,60.8403 C37.4364,61.2534 36.0925,61.459 34.7427,61.6369 C33.5907,61.832 32.4377,62.028 32.2728,62.028 C32.2728,62.2231 31.1199,62.2231 29.9669,62.4192 C28.8139,62.4192 27.332,62.6143 26.673,62.6143 C24.862,62.8093 23.8731,62.4192 22.7211,60.8555 C22.5967,60.6796 22.1828,60.0781 22.0544,59.9786 C21.5778,59.6095 20.5783,59.9164 20.1238,60.2071 C20.036,60.2636 19.9887,60.3784 19.9213,60.4644 C19.8296,60.5189 19.737,60.5734 19.6453,60.627 L19.6559,60.6586 C19.7688,61.7268 19.7978,61.1931 19.5546,62.2604 L19.5285,62.3226 C20.4664,62.9146 21.2932,63.65 22.2985,64.0593 C23.2045,64.4274 24.1249,64.7526 25.057,65.0175 C26.6624,65.4746 26.4549,65.2958 27.6947,65.3809 C28.9268,65.467 30.1483,65.6171 31.3804,65.6841 C33.7113,65.6841 33.0407,65.7013 35.6998,65.6104 C36.2044,65.5933 36.709,65.5674 37.2137,65.5464 C37.5561,65.532 37.9025,65.5607 38.2431,65.5071 C40.6628,65.1218 42.9282,63.8575 45.0836,62.6047 C47.9472,60.9407 50.7876,59.1016 53.2141,56.664 C53.2151,56.6467 53.2151,56.6296 53.2161,56.6124 C53.1012,56.4287 52.9729,56.2518 52.9044,56.0347 C52.6313,56.0185 52.7674,56.0251 52.4944,56.0156 L52.4847,56.0156 M9.8987,15.0085 C9.5519,15.0858 8.1256,15.2702 7.8331,15.4337 C7.3967,15.6775 6.8547,16.1612 6.5299,16.4258 C5.4502,17.3029 4.1158,18.3823 3.9685,19.8234 L3.9696,19.8382 L3.9696,19.8392 C4.0991,20.0275 4.1356,20.2545 4.2556,20.4418 C4.547,20.8948 5.3552,21.1237 5.846,21.2783 C6.1342,21.872 5.8742,23.8205 5.821,24.1892 C5.6414,25.44 5.4054,26.449 5.0566,27.6581 C4.8581,28.343 4.6233,28.5264 4.5313,29.353 C4.4436,30.1369 4.4279,30.9278 4.4561,31.7158 C4.4917,32.701 4.8948,33.6157 5.1495,34.5543 C5.6393,36.3522 5.3458,36.4731 6.4997,38.391 C6.7347,38.7815 7.1075,39.0808 7.4113,39.4257 C8.1861,40.3058 10.1085,42.2494 10.5419,43.1592 C10.7507,43.5973 10.3518,44.7708 10.354,45.0612 C10.3602,45.6786 10.4312,46.2981 10.5544,46.9047 C10.732,47.7778 11.466,48.4885 11.9965,49.1684 C12.7306,50.0703 12.9133,50.9732 12.9133,53.8593 C13.1462,56.0527 13.0282,56.8456 14.4797,58.4958 C14.9266,59.0052 15.55,59.7099 16.2152,59.9934 L16.6444,59.8724 L17.2981,59.1569 C17.3597,57.6444 17.2897,60.4047 17.1122,57.9586 C17.014,56.6117 17.699,56.1647 18.5991,55.3034 C18.9657,55.123 19.3333,54.5809 19.516,54.2201 C19.6997,53.6789 20.0663,53.3182 20.4338,53.1378 C21.6389,52.4737 21.2912,51.9009 21.924,50.9048 C22.3082,50.3002 22.9024,49.9514 23.1478,49.2615 C23.6073,47.9652 21.9542,47.086 20.9842,46.643 C19.8836,46.1019 18.7829,45.0186 18.4154,44.297 C18.0488,43.3951 14.5643,41.5913 12.9133,41.4109 C12.5405,41.3841 12.1678,41.3603 11.8128,41.2295 C11.369,40.3573 11.5506,39.9084 11.1684,39.0173 C10.4093,37.2472 10.2631,37.9767 9.1165,36.9647 L9.0413,36.373 L9.245,36.1778 L9.4204,36.1391 C9.7754,36.3631 10.2129,36.6149 10.5294,36.9003 C10.8541,37.1927 11.1121,37.606 11.63,37.6218 C12.2534,37.3889 12.5792,36.4999 12.9311,36.0123 C13.3175,35.4761 12.8235,36.2313 13.401,35.5891 C14.1486,34.7565 14.5528,33.7733 15.2973,32.9309 L17.3158,32.7505 C18.4154,32.5701 19.3333,32.3897 19.516,32.3897 C19.6997,32.029 19.6997,30.7653 19.516,29.1418 C19.3333,28.0595 19.1495,27.5184 18.5991,26.9763 C18.2327,26.4351 17.8661,25.7136 17.6823,25.3528 C17.4369,24.8037 17.1456,24.3399 16.5817,24.0901 C17.0317,23.2427 17.7502,22.5499 17.8181,21.5489 L17.6709,21.1306 C17.319,20.9106 17.5549,21.0603 16.9712,20.6708 L16.6736,20.0335 C16.8825,18.9988 17.2949,16.9561 16.2914,16.3089 L15.6503,16.2999 C14.7188,17.0264 14.5225,17.3604 14.1978,18.4972 C14.0139,19.0384 13.8301,19.5795 13.6474,19.7599 C13.0971,20.3011 12.9133,19.7599 12.9133,18.3169 C13.0971,17.2336 13.0971,17.2336 12.5469,16.8728 C12.032,16.3941 12.2941,16.5507 11.8128,16.3317 L11.6435,16.3743 C10.9742,15.9213 10.6839,15.4307 10.05,14.958 L9.8987,15.0085 M54.5612,12.7973 C54.4213,13.1581 54.5027,12.9807 54.3169,13.3276 C54.0747,13.6854 53.7613,13.9956 53.3332,14.1393 C53.3364,14.2761 53.327,14.4099 53.2727,14.5397 C53.2727,14.7181 53.0889,15.2533 52.9051,15.6101 C52.7214,15.7895 52.7214,16.1463 52.7214,16.3247 C52.7214,16.8599 52.1689,16.8599 51.6165,16.5031 C51.2479,16.3247 50.8804,16.3247 50.6955,16.3247 C50.5117,16.3247 50.1431,16.1463 49.7756,15.7895 C48.487,14.8965 46.8298,15.9679 46.8298,17.5745 C46.8298,18.4675 46.2775,19.3605 45.3574,19.8957 C44.9888,20.0741 44.6202,20.6103 44.4364,20.7887 C44.2527,21.3239 44.2527,21.1455 44.0678,19.8957 C44.0678,18.1097 43.8841,17.7529 43.1478,17.7529 C42.4117,17.9313 41.8593,18.2891 41.6755,19.7173 C41.4907,20.7887 41.6755,21.5023 42.0431,22.7521 C42.0431,22.7521 42.0431,23.1099 41.8593,23.4667 L41.4907,23.8235 L40.9383,23.2883 C40.5707,22.7521 39.6497,22.5737 37.9935,22.5737 C36.8888,22.3953 35.9678,22.9315 34.6791,24.5381 C33.3906,25.9663 32.6545,27.2161 32.6545,28.2875 L32.6545,29.3589 L32.2859,28.8227 C31.5496,27.7523 30.6297,28.1091 29.8925,29.7157 C29.3411,30.7871 29.3411,31.5017 29.8925,32.0369 C30.0773,32.2153 30.4448,32.5731 30.4448,32.7515 C30.4448,32.9299 30.4448,33.1083 30.6297,33.1083 C30.9972,33.2867 30.6297,33.8229 30.0773,34.1797 C29.3411,34.5365 28.9724,35.4295 29.1563,36.8577 C29.3411,37.9291 29.1563,38.2859 28.7887,39.1789 C28.4201,39.8935 28.2363,40.2503 27.6839,40.4287 C26.9478,40.7865 26.5792,41.5001 26.7629,43.1067 C26.7629,44.8927 27.3153,45.6073 28.4201,46.3209 C29.3411,46.6777 29.7087,46.8571 31.7334,46.8571 C32.8382,47.0355 33.943,47.2139 34.1268,47.2139 C34.3116,47.3923 34.4954,47.9285 34.4954,48.4637 C34.4954,48.9989 34.6791,49.8919 34.864,50.2487 C35.0478,50.7849 35.2316,51.4995 35.2316,52.2131 C35.2316,52.9277 35.2316,53.4629 35.784,54.5343 C36.705,56.1409 37.0725,56.6771 37.9935,56.6771 C38.7298,56.6771 38.9135,56.4987 40.7545,54.5343 C41.6755,53.4629 42.9641,52.2131 43.5164,51.6779 C44.0678,51.1417 44.6202,50.6065 44.6202,50.4281 C44.6202,50.2487 44.4364,49.5351 44.2527,49.1773 L43.8841,48.1069 L44.8051,47.3923 C46.0936,46.3209 46.6461,45.4279 47.0136,44.1781 C47.0136,43.4645 47.3822,42.9283 47.7498,42.3931 C48.487,41.6785 48.487,41.5001 48.487,40.6071 C48.3021,39.3573 49.5908,39.5357 50.5117,40.7865 C50.8804,41.3217 51.4317,42.0363 51.8003,42.3931 C52.3527,43.1067 52.5365,43.2861 53.2727,43.2861 C54.1937,43.2861 54.3774,42.7499 54.746,40.7865 C54.9298,40.0719 54.9298,39.1789 55.1137,39.1789 C55.2985,38.8221 55.6661,38.8221 56.0347,39.1789 C56.4022,39.7151 57.6918,40.2503 58.4281,40.2503 C58.7956,40.2503 58.9804,40.2503 58.9804,40.4287 L58.9804,40.7865 C58.9804,40.7865 58.4281,40.9649 58.0594,40.9649 C56.9546,40.9649 56.587,41.3217 56.587,42.2147 C56.587,42.7499 56.587,43.1067 56.9546,43.6429 C58.0594,44.7143 58.4281,44.8927 59.1642,44.1781 C59.5328,43.6429 60.6366,43.1067 60.8213,43.4645 C61.0052,43.4645 60.0852,45.0711 58.9804,46.6777 C58.0594,47.9285 57.8756,48.8205 58.4281,49.7135 C58.7956,50.4281 59.5328,50.6065 60.0852,50.2487 C60.2387,50.1516 60.3953,50.0356 60.5823,50.0158 L60.6345,50.0495 C60.6481,50.2061 60.5843,50.3389 60.5154,50.4806 L60.5123,50.4875 L60.672,50.3468 C60.8496,50.1882 61.0167,50.0336 61.1764,49.879 C61.5565,49.5103 61.9471,49.0237 62.4911,48.2595 C62.6404,48.0484 62.7981,47.8383 62.9296,47.6183 C63.15,46.9493 63.3714,46.2793 63.5823,45.6073 C65.4233,40.0719 65.4233,39.7151 65.4233,36.1441 L65.4233,36.0717 C65.1747,36.4721 64.8511,36.8052 64.5001,37.1223 C64.3717,37.2383 64.2235,37.3324 64.1013,37.4543 C63.9123,37.6575 63.7253,37.8667 63.5583,38.0867 C63.5521,38.0966 63.5521,38.0966 63.5457,38.1065 C63.3525,38.4108 63.2513,38.5495 63.0852,38.7101 C63.031,38.7537 63.0654,38.7309 62.9767,38.7666 C62.8712,38.7666 62.9203,38.7765 62.8294,38.7408 C62.583,39.0263 62.6999,38.8796 62.4775,39.1789 C61.7413,40.0719 61.7413,40.0719 60.2689,39.8935 C59.9003,39.7151 59.7166,39.7151 59.9003,39.5357 C60.2689,38.6437 60.2689,38.1075 59.9003,37.5723 C59.5328,37.0361 59.5328,36.6793 59.5328,36.6793 C59.5328,36.5009 59.9003,35.9647 60.2689,35.4295 C61.5576,34.1797 61.5576,33.6445 61.189,32.2153 C60.8213,31.1439 60.8213,31.1439 61.189,30.6087 C61.3738,30.2519 61.5576,29.8941 61.3738,29.3589 C61.3738,28.8227 61.189,27.5729 61.189,26.5025 C61.1242,25.8345 61.0657,25.1576 60.8861,24.5074 C60.7044,23.8523 60.3567,23.2645 59.9003,22.7521 C59.5693,22.3725 59.442,21.8492 59.3803,21.3675 L59.3814,21.3477 C59.2895,21.1207 59.2132,20.8898 59.1694,20.648 C59.1286,20.4626 59.1088,20.3427 59.1172,20.2664 C59.1224,20.2208 59.1339,20.1792 59.1694,20.1316 L59.184,20.1157 C59.0901,19.5458 59.1621,19.8085 58.9835,19.3228 C58.7862,18.7639 58.6097,18.192 58.5042,17.6082 C58.4364,17.1652 58.4624,17.411 58.4426,16.8688 C57.9142,16.073 57.389,15.2741 56.7708,14.5397 C56.114,13.8509 55.3528,13.2661 54.5863,12.6972 L54.5612,12.7973 M18.6691,8.6859 C17.675,9.5719 17.4369,9.6532 17.4808,11.0596 L17.4808,12.4918 L17.6614,12.6702 C18.618,12.6702 18.2734,12.6077 19.1213,12.4363 C19.3061,12.5592 19.5254,12.6454 19.6757,12.805 C19.801,12.9378 19.8449,13.1241 19.9221,13.2866 C20.3608,14.2074 20.437,14.9953 20.248,15.9914 C20.1947,16.2709 20.0882,16.5415 20.0412,16.823 C19.8679,17.8587 19.7478,18.7388 19.9013,19.7785 C19.9639,20.2027 20.1655,21.0451 20.6615,21.3276 C20.8224,21.4198 21.0113,21.4584 21.1857,21.5228 C21.9375,21.2651 22.0336,21.1591 22.3636,20.4455 C22.4137,20.3384 22.4252,20.2136 22.4931,20.1164 C22.9212,19.5148 23.0893,19.6684 23.6323,19.3444 C23.8526,19.2125 24.0636,19.0688 24.2787,18.9311 C24.3456,18.8528 24.3915,18.7527 24.4792,18.6952 C24.6808,18.5643 24.9136,18.4831 25.1308,18.377 C25.0765,18.4831 24.9951,18.5802 24.9679,18.6952 C24.7988,19.4137 25.3156,20.2948 26.0664,20.505 C26.2899,20.5674 26.528,20.5714 26.7577,20.6041 L27.356,20.4673 L28.2457,19.5971 C28.4233,18.8538 28.4159,19.2106 28.3115,18.5287 L27.805,18.151 C26.9279,18.048 27.332,18.0718 26.5959,18.0589 L25.4566,18.0589 C25.6967,17.6079 26.033,17.2154 26.27,16.7863 C26.3787,16.59 26.4454,16.374 26.5374,16.1698 C26.7128,15.7783 26.8977,15.3898 27.0709,14.9963 C27.4323,14.1767 27.4771,13.8496 27.9554,12.9259 C28.251,12.357 28.7574,11.8555 28.9349,11.233 C29.0049,10.9902 28.9641,10.7296 28.9777,10.4778 C28.8137,10.2479 28.6154,10.0368 28.4869,9.787 C28.4128,9.6413 28.4264,9.4599 28.3324,9.3251 C28.1361,9.0447 27.8688,8.8345 27.6714,8.557 C26.907,8.2993 26.6135,8.2924 25.7813,8.4549 C25.6038,8.4896 24.7862,8.7543 24.4876,8.7602 C23.4945,8.781 23.6292,8.4292 23.1551,8.2389 C22.8962,8.1348 22.6142,8.0833 22.3354,8.0446 C21.7486,7.9624 21.1376,8.1675 20.556,8.0347 L18.6691,8.6859 M46.1813,12.2988 C45.9464,12.3335 46.0581,12.3077 45.8441,12.3741 C45.7574,12.4822 45.6363,12.5714 45.584,12.6972 C45.4608,12.9995 45.4974,13.3444 45.393,13.6517 C45.4619,13.8192 45.5058,13.9976 45.5986,14.1542 C45.8357,14.5486 46.3724,14.6487 46.7881,14.7736 L47.2631,14.731 C47.9816,14.1512 48.0871,14.283 48.299,13.6665 C48.3272,13.5833 48.252,13.391 48.2269,13.3306 C47.9565,12.6487 47.14,12.3196 46.4215,12.278 L46.1813,12.2988 M34.381,16.8242 C34.1586,16.8996 33.9205,16.9412 33.7137,17.0492 C33.5686,17.1255 33.4537,17.2494 33.3451,17.3694 C32.4607,18.3436 32.7269,18.9591 33.177,20.086 C33.6511,20.4002 33.4098,20.2515 33.9006,20.53 L34.4906,20.53 C35.0545,20.2099 34.7266,20.3774 35.491,20.0543 C35.7478,19.6678 36.0747,19.3159 36.2637,18.8947 C36.5248,18.3139 36.3305,17.6459 36.128,17.0958 C35.9494,16.9729 36.0267,17.0413 35.892,16.8936 C35.135,16.8014 35.4805,16.8203 34.8561,16.8153 L34.381,16.8242" id="Shape" fill="#FFFFFF"></path>
                <circle id="Oval" stroke="#FFFFFF" stroke-width="2" cx="33" cy="33" r="32"></circle>
            </g>
        </g>
    </g>
</svg>