<?xml version="1.0" encoding="UTF-8" standalone="no"?>
<svg width="161px" height="164px" viewBox="0 0 161 164" version="1.1" xmlns="http://www.w3.org/2000/svg" xmlns:xlink="http://www.w3.org/1999/xlink">
    <!-- Generator: Sketch 43.1 (39012) - http://www.bohemiancoding.com/sketch -->
    <title>SmallWins</title>
    <desc>Created with Sketch.</desc>
    <defs></defs>
    <g id="Page-1" stroke="none" stroke-width="1" fill="none" fill-rule="evenodd">
        <g id="SmallWins" fill-rule="nonzero" fill="#FFFFFF">
            <g id="Group" transform="translate(50.000000, 52.000000)">
                <path d="M60,26 L56,26 L56,18 L56,5 C56,4.653 55.82,4.332 55.525,4.149 C55.23,3.965 54.862,3.95 54.552,4.105 L40.552,11.105 C40.203,11.279 39.989,11.64 39.999,12.029 C40.011,12.419 40.247,12.765 40.605,12.919 L54,18.659 L54,26 L48,26 C47.447,26 47,26.447 47,27 L47,34 L37,34 C36.447,34 36,34.447 36,35 L36,42 L26,42 C25.447,42 25,42.447 25,43 L25,50 L14,50 C13.447,50 13,50.447 13,51 L13,59 C13,59.553 13.447,60 14,60 L61,60 L61,27 C61,26.447 60.553,26 60,26 Z M54,6.618 L54,16.483 L43.376,11.93 L54,6.618 Z M61,60 L16,60 L16,53.8 L27.25,53.8 C27.8155682,53.8 28.2727273,53.3381 28.2727273,52.7666667 L28.2727273,45.5333333 L38.5,45.5333333 C39.0655682,45.5333333 39.5227273,45.0714333 39.5227273,44.5 L39.5227273,37.2666667 L49.75,37.2666667 C50.3155682,37.2666667 50.7727273,36.8047667 50.7727273,36.2333333 L50.7727273,29 L61,29 L61,60 Z M52,0 L54,0 L54,3 L52,3 L52,0 Z M57.2926606,3.2931394 L59.2923394,1.2934606 L60.7065394,2.7076606 L58.7068606,4.7073394 L57.2926606,3.2931394 Z M45.2926606,2.7075606 L46.7068606,1.2933606 L48.7065394,3.2930394 L47.2923394,4.7072394 L45.2926606,2.7075606 Z" id="Shape"></path>
                <path d="M2.73867339,41.0757559 L22.8637267,21.3157126 L22.8637267,24.1172591 L24.4550803,24.1172591 L24.4550803,19.4297859 C24.4550803,18.9977571 24.0994128,18.6485403 23.6594035,18.6485403 L18.8853427,18.6485403 L18.8853427,20.2110314 L21.7386397,20.2110314 L1.61358639,39.9710748 L2.73867339,41.0757559 Z" id="Shape" transform="translate(13.034333, 29.862148) rotate(9.000000) translate(-13.034333, -29.862148) "></path>
            </g>
        </g>
    </g>
</svg>