<?xml version="1.0" encoding="UTF-8" standalone="no"?>
<svg width="161px" height="164px" viewBox="0 0 161 164" version="1.1" xmlns="http://www.w3.org/2000/svg" xmlns:xlink="http://www.w3.org/1999/xlink">
    <!-- Generator: Sketch 43.1 (39012) - http://www.bohemiancoding.com/sketch -->
    <title>Video</title>
    <desc>Created with Sketch.</desc>
    <defs></defs>
    <g id="Page-1" stroke="none" stroke-width="1" fill="none" fill-rule="evenodd">
        <g id="Video" fill-rule="nonzero" fill="#FFFFFF">
            <path d="M38,51 L38,53 L38,97 L38,99 L40,99 L122,99 L124,99 L124,97 L124,53 L124,51 L122,51 L40,51 L38,51 Z M42,55 L120,55 L120,95 L42,95 L42,55 Z M73.84375,60.9375 C72.85969,61.0156 72.01704,61.97447 72.03125,63 L72.03125,87 C72.04405,88.4149 73.78744,89.4535 74.96875,88.75 L94.96875,76.75 C96.15458,76.0381 96.15458,73.93065 94.96875,73.21875 L74.96875,61.21875 C74.63202,61.01117 74.23449,60.91179 73.84375,60.9375 Z M75.96875,66.53125 L90.0625,75 L75.96875,83.4375 L75.96875,66.53125 Z M57,103 C54.95431,103 53.21177,104.2405 52.4375,106 L44,106 C42.89543,106 42,106.8954 42,108 C42,109.1046 42.89543,110 44,110 L52.4375,110 C53.21177,111.7595 54.95431,113 57,113 C59.04569,113 60.78823,111.7595 61.5625,110 L118,110 C119.10457,110 120,109.1046 120,108 C120,106.8954 119.10457,106 118,106 L61.5625,106 C60.78823,104.2405 59.04569,103 57,103 Z" id="Shape"></path>
        </g>
    </g>
</svg>